<mxfile host="app.diagrams.net" modified="2022-03-29T20:27:09.831Z" agent="5.0 (Windows NT 10.0; Win64; x64) AppleWebKit/537.36 (KHTML, like Gecko) Chrome/99.0.4844.82 Safari/537.36" etag="sCCzQCXSagnI-7WMyKSO" version="17.2.1" type="github">
  <diagram id="1rt19GtPNxj7iajj7nAb" name="Page-1">
    <mxGraphModel dx="1249" dy="778" grid="1" gridSize="10" guides="1" tooltips="1" connect="1" arrows="1" fold="1" page="1" pageScale="1" pageWidth="827" pageHeight="1169" math="0" shadow="0">
      <root>
        <mxCell id="0" />
        <mxCell id="1" parent="0" />
        <mxCell id="nwWqQQroa99H9BnDHaIJ-2" value="V" style="ellipse;whiteSpace=wrap;html=1;aspect=fixed;" vertex="1" parent="1">
          <mxGeometry x="104.13087500000002" y="267.12125865299663" width="30.443790716414718" height="30.443790716414718" as="geometry" />
        </mxCell>
        <mxCell id="nwWqQQroa99H9BnDHaIJ-40" value="V" style="ellipse;whiteSpace=wrap;html=1;aspect=fixed;" vertex="1" parent="1">
          <mxGeometry x="104.13277777777779" y="267.1231613899164" width="30.443790716414718" height="30.443790716414718" as="geometry" />
        </mxCell>
        <mxCell id="nwWqQQroa99H9BnDHaIJ-6" value="" style="endArrow=none;html=1;rounded=0;entryX=0.5;entryY=1;entryDx=0;entryDy=0;exitX=0.5;exitY=0;exitDx=0;exitDy=0;" edge="1" parent="1" source="nwWqQQroa99H9BnDHaIJ-2" target="nwWqQQroa99H9BnDHaIJ-1">
          <mxGeometry width="50" height="50" relative="1" as="geometry">
            <mxPoint x="332.5416666666667" y="98.94231982834783" as="sourcePoint" />
            <mxPoint x="351.5694444444444" y="79.91495063058865" as="targetPoint" />
          </mxGeometry>
        </mxCell>
        <mxCell id="nwWqQQroa99H9BnDHaIJ-36" value="H" style="ellipse;whiteSpace=wrap;html=1;aspect=fixed;" vertex="1" parent="1">
          <mxGeometry x="19.799999999999997" y="509.99620928358536" width="30.443790716414718" height="30.443790716414718" as="geometry" />
        </mxCell>
        <mxCell id="nwWqQQroa99H9BnDHaIJ-37" value="H" style="ellipse;whiteSpace=wrap;html=1;aspect=fixed;" vertex="1" parent="1">
          <mxGeometry x="151.6989722222222" y="509.99620928358536" width="30.443790716414718" height="30.443790716414718" as="geometry" />
        </mxCell>
        <mxCell id="nwWqQQroa99H9BnDHaIJ-38" value="" style="endArrow=none;html=1;rounded=0;entryX=0.5;entryY=1;entryDx=0;entryDy=0;exitX=0.5;exitY=0;exitDx=0;exitDy=0;" edge="1" parent="1" source="nwWqQQroa99H9BnDHaIJ-36" target="nwWqQQroa99H9BnDHaIJ-40">
          <mxGeometry width="50" height="50" relative="1" as="geometry">
            <mxPoint x="121.25587500000002" y="366.06548121826427" as="sourcePoint" />
            <mxPoint x="140.28365277777775" y="347.0381120205051" as="targetPoint" />
          </mxGeometry>
        </mxCell>
        <mxCell id="nwWqQQroa99H9BnDHaIJ-39" value="" style="endArrow=none;html=1;rounded=0;entryX=0.5;entryY=1;entryDx=0;entryDy=0;exitX=0.5;exitY=0;exitDx=0;exitDy=0;" edge="1" parent="1" source="nwWqQQroa99H9BnDHaIJ-37" target="nwWqQQroa99H9BnDHaIJ-40">
          <mxGeometry width="50" height="50" relative="1" as="geometry">
            <mxPoint x="121.25587500000002" y="366.06548121826427" as="sourcePoint" />
            <mxPoint x="140.28365277777775" y="347.0381120205051" as="targetPoint" />
          </mxGeometry>
        </mxCell>
        <mxCell id="nwWqQQroa99H9BnDHaIJ-41" value="Run" style="text;html=1;strokeColor=none;fillColor=none;align=center;verticalAlign=middle;whiteSpace=wrap;rounded=0;" vertex="1" parent="1">
          <mxGeometry x="37.52944444444444" y="369.9969447276187" width="22.833333333333336" height="11.416421518655522" as="geometry" />
        </mxCell>
        <mxCell id="nwWqQQroa99H9BnDHaIJ-42" value="Soft" style="text;html=1;strokeColor=none;fillColor=none;align=center;verticalAlign=middle;whiteSpace=wrap;rounded=0;" vertex="1" parent="1">
          <mxGeometry x="67.97611111111112" y="430.00336624627425" width="22.833333333333336" height="11.416421518655522" as="geometry" />
        </mxCell>
        <mxCell id="nwWqQQroa99H9BnDHaIJ-43" value="Medium" style="text;html=1;strokeColor=none;fillColor=none;align=center;verticalAlign=middle;whiteSpace=wrap;rounded=0;" vertex="1" parent="1">
          <mxGeometry x="113.64230555555554" y="430.00526898319407" width="22.833333333333336" height="11.416421518655522" as="geometry" />
        </mxCell>
        <mxCell id="nwWqQQroa99H9BnDHaIJ-44" value="Hard" style="text;html=1;strokeColor=none;fillColor=none;align=center;verticalAlign=middle;whiteSpace=wrap;rounded=0;" vertex="1" parent="1">
          <mxGeometry x="151.70373611111108" y="389.9969447276187" width="22.833333333333336" height="11.416421518655522" as="geometry" />
        </mxCell>
        <mxCell id="nwWqQQroa99H9BnDHaIJ-45" value="H" style="ellipse;whiteSpace=wrap;html=1;aspect=fixed;" vertex="1" parent="1">
          <mxGeometry x="106.03420833333334" y="509.99620928358536" width="30.443790716414718" height="30.443790716414718" as="geometry" />
        </mxCell>
        <mxCell id="nwWqQQroa99H9BnDHaIJ-46" value="" style="endArrow=none;html=1;rounded=0;entryX=0.5;entryY=1;entryDx=0;entryDy=0;exitX=0.5;exitY=0;exitDx=0;exitDy=0;" edge="1" parent="1" source="nwWqQQroa99H9BnDHaIJ-45" target="nwWqQQroa99H9BnDHaIJ-40">
          <mxGeometry width="50" height="50" relative="1" as="geometry">
            <mxPoint x="121.25587500000002" y="366.06548121826427" as="sourcePoint" />
            <mxPoint x="140.28365277777775" y="347.0381120205051" as="targetPoint" />
          </mxGeometry>
        </mxCell>
        <mxCell id="nwWqQQroa99H9BnDHaIJ-47" value="H" style="ellipse;whiteSpace=wrap;html=1;aspect=fixed;" vertex="1" parent="1">
          <mxGeometry x="60.36563888888889" y="509.99620928358536" width="30.443790716414718" height="30.443790716414718" as="geometry" />
        </mxCell>
        <mxCell id="nwWqQQroa99H9BnDHaIJ-48" value="" style="endArrow=none;html=1;rounded=0;entryX=0.5;entryY=1;entryDx=0;entryDy=0;exitX=0.5;exitY=0;exitDx=0;exitDy=0;" edge="1" parent="1" source="nwWqQQroa99H9BnDHaIJ-47" target="nwWqQQroa99H9BnDHaIJ-40">
          <mxGeometry width="50" height="50" relative="1" as="geometry">
            <mxPoint x="121.25587500000002" y="366.06548121826427" as="sourcePoint" />
            <mxPoint x="140.28365277777775" y="347.0381120205051" as="targetPoint" />
          </mxGeometry>
        </mxCell>
        <mxCell id="nwWqQQroa99H9BnDHaIJ-5" value="V" style="ellipse;whiteSpace=wrap;html=1;aspect=fixed;" vertex="1" parent="1">
          <mxGeometry x="650.2280972222223" y="267.12125865299663" width="30.443790716414718" height="30.443790716414718" as="geometry" />
        </mxCell>
        <mxCell id="nwWqQQroa99H9BnDHaIJ-10" value="" style="endArrow=none;html=1;rounded=0;entryX=0.5;entryY=1;entryDx=0;entryDy=0;exitX=0.5;exitY=0;exitDx=0;exitDy=0;" edge="1" parent="1" source="nwWqQQroa99H9BnDHaIJ-5" target="nwWqQQroa99H9BnDHaIJ-1">
          <mxGeometry width="50" height="50" relative="1" as="geometry">
            <mxPoint x="332.5416666666667" y="98.94231982834783" as="sourcePoint" />
            <mxPoint x="351.5694444444444" y="79.91495063058865" as="targetPoint" />
          </mxGeometry>
        </mxCell>
        <mxCell id="nwWqQQroa99H9BnDHaIJ-1" value="H" style="ellipse;whiteSpace=wrap;html=1;aspect=fixed;" vertex="1" parent="1">
          <mxGeometry x="378.21023611111116" width="30.443790716414718" height="30.443790716414718" as="geometry" />
        </mxCell>
        <mxCell id="nwWqQQroa99H9BnDHaIJ-11" value="Run" style="text;html=1;strokeColor=none;fillColor=none;align=center;verticalAlign=middle;whiteSpace=wrap;rounded=0;" vertex="1" parent="1">
          <mxGeometry x="209.99619444444448" y="130.00473839551842" width="22.833333333333336" height="11.416421518655522" as="geometry" />
        </mxCell>
        <mxCell id="nwWqQQroa99H9BnDHaIJ-12" value="Soft" style="text;html=1;strokeColor=none;fillColor=none;align=center;verticalAlign=middle;whiteSpace=wrap;rounded=0;" vertex="1" parent="1">
          <mxGeometry x="307.72698611111116" y="161.41662637501338" width="22.833333333333336" height="11.416421518655522" as="geometry" />
        </mxCell>
        <mxCell id="nwWqQQroa99H9BnDHaIJ-14" value="Medium" style="text;html=1;strokeColor=none;fillColor=none;align=center;verticalAlign=middle;whiteSpace=wrap;rounded=0;" vertex="1" parent="1">
          <mxGeometry x="459.6730972222223" y="150.00031835260538" width="22.833333333333336" height="11.416421518655522" as="geometry" />
        </mxCell>
        <mxCell id="nwWqQQroa99H9BnDHaIJ-15" value="Hard" style="text;html=1;strokeColor=none;fillColor=none;align=center;verticalAlign=middle;whiteSpace=wrap;rounded=0;" vertex="1" parent="1">
          <mxGeometry x="529.9985694444445" y="130.0073618190468" width="22.833333333333336" height="11.416421518655522" as="geometry" />
        </mxCell>
        <mxCell id="nwWqQQroa99H9BnDHaIJ-4" value="V" style="ellipse;whiteSpace=wrap;html=1;aspect=fixed;" vertex="1" parent="1">
          <mxGeometry x="467.5633333333334" y="267.12125865299663" width="30.443790716414718" height="30.443790716414718" as="geometry" />
        </mxCell>
        <mxCell id="nwWqQQroa99H9BnDHaIJ-9" value="" style="endArrow=none;html=1;rounded=0;entryX=0.5;entryY=1;entryDx=0;entryDy=0;exitX=0.5;exitY=0;exitDx=0;exitDy=0;" edge="1" parent="1" source="nwWqQQroa99H9BnDHaIJ-4" target="nwWqQQroa99H9BnDHaIJ-1">
          <mxGeometry width="50" height="50" relative="1" as="geometry">
            <mxPoint x="332.5416666666667" y="98.94231982834783" as="sourcePoint" />
            <mxPoint x="351.5694444444444" y="79.91495063058865" as="targetPoint" />
          </mxGeometry>
        </mxCell>
        <mxCell id="nwWqQQroa99H9BnDHaIJ-3" value="V" style="ellipse;whiteSpace=wrap;html=1;aspect=fixed;" vertex="1" parent="1">
          <mxGeometry x="285.8423472222223" y="267.12125865299663" width="30.443790716414718" height="30.443790716414718" as="geometry" />
        </mxCell>
        <mxCell id="nwWqQQroa99H9BnDHaIJ-8" value="" style="endArrow=none;html=1;rounded=0;entryX=0.5;entryY=1;entryDx=0;entryDy=0;exitX=0.5;exitY=0;exitDx=0;exitDy=0;" edge="1" parent="1" source="nwWqQQroa99H9BnDHaIJ-3" target="nwWqQQroa99H9BnDHaIJ-1">
          <mxGeometry width="50" height="50" relative="1" as="geometry">
            <mxPoint x="332.5416666666667" y="98.94231982834783" as="sourcePoint" />
            <mxPoint x="351.5694444444444" y="79.91495063058865" as="targetPoint" />
          </mxGeometry>
        </mxCell>
        <mxCell id="nwWqQQroa99H9BnDHaIJ-52" value="H" style="ellipse;whiteSpace=wrap;html=1;aspect=fixed;" vertex="1" parent="1">
          <mxGeometry x="195.46999999999997" y="514.46" width="25.98" height="25.98" as="geometry" />
        </mxCell>
        <mxCell id="nwWqQQroa99H9BnDHaIJ-53" value="H" style="ellipse;whiteSpace=wrap;html=1;aspect=fixed;" vertex="1" parent="1">
          <mxGeometry x="330.5638888888889" y="509.99620928358536" width="30.443790716414718" height="30.443790716414718" as="geometry" />
        </mxCell>
        <mxCell id="nwWqQQroa99H9BnDHaIJ-54" value="" style="endArrow=none;html=1;rounded=0;entryX=0.5;entryY=1;entryDx=0;entryDy=0;exitX=0.5;exitY=0;exitDx=0;exitDy=0;" edge="1" parent="1" source="nwWqQQroa99H9BnDHaIJ-52" target="nwWqQQroa99H9BnDHaIJ-3">
          <mxGeometry width="50" height="50" relative="1" as="geometry">
            <mxPoint x="280.13591666666673" y="366.06548121826427" as="sourcePoint" />
            <mxPoint x="278.2350416666667" y="297.56695210633114" as="targetPoint" />
          </mxGeometry>
        </mxCell>
        <mxCell id="nwWqQQroa99H9BnDHaIJ-55" value="" style="endArrow=none;html=1;rounded=0;entryX=0.5;entryY=1;entryDx=0;entryDy=0;exitX=0.5;exitY=0;exitDx=0;exitDy=0;" edge="1" parent="1" source="nwWqQQroa99H9BnDHaIJ-53" target="nwWqQQroa99H9BnDHaIJ-3">
          <mxGeometry width="50" height="50" relative="1" as="geometry">
            <mxPoint x="280.13591666666673" y="366.06548121826427" as="sourcePoint" />
            <mxPoint x="278.2350416666667" y="297.56695210633114" as="targetPoint" />
          </mxGeometry>
        </mxCell>
        <mxCell id="nwWqQQroa99H9BnDHaIJ-56" value="Run" style="text;html=1;strokeColor=none;fillColor=none;align=center;verticalAlign=middle;whiteSpace=wrap;rounded=0;" vertex="1" parent="1">
          <mxGeometry x="221.44619444444444" y="389.9969447276187" width="22.833333333333336" height="11.416421518655522" as="geometry" />
        </mxCell>
        <mxCell id="nwWqQQroa99H9BnDHaIJ-57" value="Soft" style="text;html=1;strokeColor=none;fillColor=none;align=center;verticalAlign=middle;whiteSpace=wrap;rounded=0;" vertex="1" parent="1">
          <mxGeometry x="258.3344444444445" y="401.4151554869465" width="22.833333333333336" height="11.416421518655522" as="geometry" />
        </mxCell>
        <mxCell id="nwWqQQroa99H9BnDHaIJ-58" value="Medium" style="text;html=1;strokeColor=none;fillColor=none;align=center;verticalAlign=middle;whiteSpace=wrap;rounded=0;" vertex="1" parent="1">
          <mxGeometry x="310.0048888888889" y="401.41526898319404" width="22.833333333333336" height="11.416421518655522" as="geometry" />
        </mxCell>
        <mxCell id="nwWqQQroa99H9BnDHaIJ-59" value="Hard" style="text;html=1;strokeColor=none;fillColor=none;align=center;verticalAlign=middle;whiteSpace=wrap;rounded=0;" vertex="1" parent="1">
          <mxGeometry x="330.56444444444446" y="381.40873396829096" width="22.833333333333336" height="11.416421518655522" as="geometry" />
        </mxCell>
        <mxCell id="nwWqQQroa99H9BnDHaIJ-60" value="H" style="ellipse;whiteSpace=wrap;html=1;aspect=fixed;" vertex="1" parent="1">
          <mxGeometry x="286.8" y="509.99620928358536" width="30.443790716414718" height="30.443790716414718" as="geometry" />
        </mxCell>
        <mxCell id="nwWqQQroa99H9BnDHaIJ-61" value="" style="endArrow=none;html=1;rounded=0;exitX=0.5;exitY=0;exitDx=0;exitDy=0;entryX=0.5;entryY=1;entryDx=0;entryDy=0;" edge="1" parent="1" source="nwWqQQroa99H9BnDHaIJ-60" target="nwWqQQroa99H9BnDHaIJ-3">
          <mxGeometry width="50" height="50" relative="1" as="geometry">
            <mxPoint x="280.13591666666673" y="366.06548121826427" as="sourcePoint" />
            <mxPoint x="302.0216666666667" y="297.37667841435353" as="targetPoint" />
          </mxGeometry>
        </mxCell>
        <mxCell id="nwWqQQroa99H9BnDHaIJ-62" value="H" style="ellipse;whiteSpace=wrap;html=1;aspect=fixed;" vertex="1" parent="1">
          <mxGeometry x="241.1314305555556" y="509.99620928358536" width="30.443790716414718" height="30.443790716414718" as="geometry" />
        </mxCell>
        <mxCell id="nwWqQQroa99H9BnDHaIJ-63" value="" style="endArrow=none;html=1;rounded=0;entryX=0.5;entryY=1;entryDx=0;entryDy=0;exitX=0.5;exitY=0;exitDx=0;exitDy=0;" edge="1" parent="1" source="nwWqQQroa99H9BnDHaIJ-62" target="nwWqQQroa99H9BnDHaIJ-3">
          <mxGeometry width="50" height="50" relative="1" as="geometry">
            <mxPoint x="280.13591666666673" y="366.06548121826427" as="sourcePoint" />
            <mxPoint x="278.2350416666667" y="297.56695210633114" as="targetPoint" />
          </mxGeometry>
        </mxCell>
        <mxCell id="nwWqQQroa99H9BnDHaIJ-67" value="V" style="ellipse;whiteSpace=wrap;html=1;aspect=fixed;" vertex="1" parent="1">
          <mxGeometry x="467.74980555555567" y="267.12125865299663" width="30.443790716414718" height="30.443790716414718" as="geometry" />
        </mxCell>
        <mxCell id="nwWqQQroa99H9BnDHaIJ-68" value="H" style="ellipse;whiteSpace=wrap;html=1;aspect=fixed;" vertex="1" parent="1">
          <mxGeometry x="377.37412500000005" y="509.99620928358536" width="30.443790716414718" height="30.443790716414718" as="geometry" />
        </mxCell>
        <mxCell id="nwWqQQroa99H9BnDHaIJ-69" value="H" style="ellipse;whiteSpace=wrap;html=1;aspect=fixed;" vertex="1" parent="1">
          <mxGeometry x="512.4713472222223" y="509.99620928358536" width="30.443790716414718" height="30.443790716414718" as="geometry" />
        </mxCell>
        <mxCell id="nwWqQQroa99H9BnDHaIJ-70" value="" style="endArrow=none;html=1;rounded=0;entryX=0.5;entryY=1;entryDx=0;entryDy=0;exitX=0.5;exitY=0;exitDx=0;exitDy=0;" edge="1" parent="1" source="nwWqQQroa99H9BnDHaIJ-68" target="nwWqQQroa99H9BnDHaIJ-67">
          <mxGeometry width="50" height="50" relative="1" as="geometry">
            <mxPoint x="462.0433750000001" y="366.06548121826427" as="sourcePoint" />
            <mxPoint x="460.1425000000001" y="297.56695210633114" as="targetPoint" />
          </mxGeometry>
        </mxCell>
        <mxCell id="nwWqQQroa99H9BnDHaIJ-71" value="" style="endArrow=none;html=1;rounded=0;entryX=0.5;entryY=1;entryDx=0;entryDy=0;exitX=0.5;exitY=0;exitDx=0;exitDy=0;" edge="1" parent="1" source="nwWqQQroa99H9BnDHaIJ-69" target="nwWqQQroa99H9BnDHaIJ-67">
          <mxGeometry width="50" height="50" relative="1" as="geometry">
            <mxPoint x="462.0433750000001" y="366.06548121826427" as="sourcePoint" />
            <mxPoint x="460.1425000000001" y="297.56695210633114" as="targetPoint" />
          </mxGeometry>
        </mxCell>
        <mxCell id="nwWqQQroa99H9BnDHaIJ-72" value="Run" style="text;html=1;strokeColor=none;fillColor=none;align=center;verticalAlign=middle;whiteSpace=wrap;rounded=0;" vertex="1" parent="1">
          <mxGeometry x="414.0036527777778" y="381.4169447276187" width="22.833333333333336" height="11.416421518655522" as="geometry" />
        </mxCell>
        <mxCell id="nwWqQQroa99H9BnDHaIJ-73" value="Soft" style="text;html=1;strokeColor=none;fillColor=none;align=center;verticalAlign=middle;whiteSpace=wrap;rounded=0;" vertex="1" parent="1">
          <mxGeometry x="436.8419027777778" y="401.4151554869465" width="22.833333333333336" height="11.416421518655522" as="geometry" />
        </mxCell>
        <mxCell id="nwWqQQroa99H9BnDHaIJ-74" value="Medium" style="text;html=1;strokeColor=none;fillColor=none;align=center;verticalAlign=middle;whiteSpace=wrap;rounded=0;" vertex="1" parent="1">
          <mxGeometry x="475.36234722222224" y="418.58526898319406" width="22.833333333333336" height="11.416421518655522" as="geometry" />
        </mxCell>
        <mxCell id="nwWqQQroa99H9BnDHaIJ-75" value="Hard" style="text;html=1;strokeColor=none;fillColor=none;align=center;verticalAlign=middle;whiteSpace=wrap;rounded=0;" vertex="1" parent="1">
          <mxGeometry x="512.4719027777779" y="378.578733968291" width="22.833333333333336" height="11.416421518655522" as="geometry" />
        </mxCell>
        <mxCell id="nwWqQQroa99H9BnDHaIJ-76" value="H" style="ellipse;whiteSpace=wrap;html=1;aspect=fixed;" vertex="1" parent="1">
          <mxGeometry x="468.7074583333333" y="509.99620928358536" width="30.443790716414718" height="30.443790716414718" as="geometry" />
        </mxCell>
        <mxCell id="nwWqQQroa99H9BnDHaIJ-77" value="" style="endArrow=none;html=1;rounded=0;exitX=0.5;exitY=0;exitDx=0;exitDy=0;entryX=0.5;entryY=1;entryDx=0;entryDy=0;" edge="1" parent="1" source="nwWqQQroa99H9BnDHaIJ-76" target="nwWqQQroa99H9BnDHaIJ-67">
          <mxGeometry width="50" height="50" relative="1" as="geometry">
            <mxPoint x="462.0433750000001" y="366.06548121826427" as="sourcePoint" />
            <mxPoint x="483.92912500000006" y="297.37667841435353" as="targetPoint" />
          </mxGeometry>
        </mxCell>
        <mxCell id="nwWqQQroa99H9BnDHaIJ-78" value="H" style="ellipse;whiteSpace=wrap;html=1;aspect=fixed;" vertex="1" parent="1">
          <mxGeometry x="423.038888888889" y="509.99620928358536" width="30.443790716414718" height="30.443790716414718" as="geometry" />
        </mxCell>
        <mxCell id="nwWqQQroa99H9BnDHaIJ-79" value="" style="endArrow=none;html=1;rounded=0;entryX=0.5;entryY=1;entryDx=0;entryDy=0;exitX=0.5;exitY=0;exitDx=0;exitDy=0;" edge="1" parent="1" source="nwWqQQroa99H9BnDHaIJ-78" target="nwWqQQroa99H9BnDHaIJ-67">
          <mxGeometry width="50" height="50" relative="1" as="geometry">
            <mxPoint x="462.0433750000001" y="366.06548121826427" as="sourcePoint" />
            <mxPoint x="460.1425000000001" y="297.56695210633114" as="targetPoint" />
          </mxGeometry>
        </mxCell>
        <mxCell id="nwWqQQroa99H9BnDHaIJ-80" value="V" style="ellipse;whiteSpace=wrap;html=1;aspect=fixed;" vertex="1" parent="1">
          <mxGeometry x="650.034013888889" y="267.12125865299663" width="30.443790716414718" height="30.443790716414718" as="geometry" />
        </mxCell>
        <mxCell id="nwWqQQroa99H9BnDHaIJ-81" value="H" style="ellipse;whiteSpace=wrap;html=1;aspect=fixed;" vertex="1" parent="1">
          <mxGeometry x="586.2883333333334" y="499.99620928358536" width="30.443790716414718" height="30.443790716414718" as="geometry" />
        </mxCell>
        <mxCell id="nwWqQQroa99H9BnDHaIJ-82" value="H" style="ellipse;whiteSpace=wrap;html=1;aspect=fixed;" vertex="1" parent="1">
          <mxGeometry x="729.9955555555556" y="499.99620928358536" width="30.443790716414718" height="30.443790716414718" as="geometry" />
        </mxCell>
        <mxCell id="nwWqQQroa99H9BnDHaIJ-83" value="" style="endArrow=none;html=1;rounded=0;entryX=0.5;entryY=1;entryDx=0;entryDy=0;exitX=0.5;exitY=0;exitDx=0;exitDy=0;" edge="1" parent="1" source="nwWqQQroa99H9BnDHaIJ-81" target="nwWqQQroa99H9BnDHaIJ-80">
          <mxGeometry width="50" height="50" relative="1" as="geometry">
            <mxPoint x="644.3275833333333" y="366.06548121826427" as="sourcePoint" />
            <mxPoint x="642.4267083333333" y="297.56695210633114" as="targetPoint" />
          </mxGeometry>
        </mxCell>
        <mxCell id="nwWqQQroa99H9BnDHaIJ-84" value="" style="endArrow=none;html=1;rounded=0;entryX=0.5;entryY=1;entryDx=0;entryDy=0;exitX=0.5;exitY=0;exitDx=0;exitDy=0;" edge="1" parent="1" source="nwWqQQroa99H9BnDHaIJ-82" target="nwWqQQroa99H9BnDHaIJ-80">
          <mxGeometry width="50" height="50" relative="1" as="geometry">
            <mxPoint x="644.3275833333333" y="366.06548121826427" as="sourcePoint" />
            <mxPoint x="642.4267083333333" y="297.56695210633114" as="targetPoint" />
          </mxGeometry>
        </mxCell>
        <mxCell id="nwWqQQroa99H9BnDHaIJ-85" value="Run" style="text;html=1;strokeColor=none;fillColor=none;align=center;verticalAlign=middle;whiteSpace=wrap;rounded=0;" vertex="1" parent="1">
          <mxGeometry x="590.0978611111112" y="418.58694472761874" width="22.833333333333336" height="11.416421518655522" as="geometry" />
        </mxCell>
        <mxCell id="nwWqQQroa99H9BnDHaIJ-86" value="Soft" style="text;html=1;strokeColor=none;fillColor=none;align=center;verticalAlign=middle;whiteSpace=wrap;rounded=0;" vertex="1" parent="1">
          <mxGeometry x="643.3861111111111" y="430.0051554869465" width="22.833333333333336" height="11.416421518655522" as="geometry" />
        </mxCell>
        <mxCell id="nwWqQQroa99H9BnDHaIJ-87" value="Medium" style="text;html=1;strokeColor=none;fillColor=none;align=center;verticalAlign=middle;whiteSpace=wrap;rounded=0;" vertex="1" parent="1">
          <mxGeometry x="679.5365555555555" y="441.4252689831941" width="22.833333333333336" height="11.416421518655522" as="geometry" />
        </mxCell>
        <mxCell id="nwWqQQroa99H9BnDHaIJ-88" value="Hard" style="text;html=1;strokeColor=none;fillColor=none;align=center;verticalAlign=middle;whiteSpace=wrap;rounded=0;" vertex="1" parent="1">
          <mxGeometry x="694.7561111111112" y="418.58873396829097" width="22.833333333333336" height="11.416421518655522" as="geometry" />
        </mxCell>
        <mxCell id="nwWqQQroa99H9BnDHaIJ-89" value="H" style="ellipse;whiteSpace=wrap;html=1;aspect=fixed;" vertex="1" parent="1">
          <mxGeometry x="687.1416666666668" y="499.99620928358536" width="30.443790716414718" height="30.443790716414718" as="geometry" />
        </mxCell>
        <mxCell id="nwWqQQroa99H9BnDHaIJ-90" value="" style="endArrow=none;html=1;rounded=0;exitX=0.5;exitY=0;exitDx=0;exitDy=0;entryX=0.5;entryY=1;entryDx=0;entryDy=0;" edge="1" parent="1" source="nwWqQQroa99H9BnDHaIJ-89" target="nwWqQQroa99H9BnDHaIJ-80">
          <mxGeometry width="50" height="50" relative="1" as="geometry">
            <mxPoint x="644.3275833333333" y="366.06548121826427" as="sourcePoint" />
            <mxPoint x="666.2133333333334" y="297.37667841435353" as="targetPoint" />
          </mxGeometry>
        </mxCell>
        <mxCell id="nwWqQQroa99H9BnDHaIJ-91" value="H" style="ellipse;whiteSpace=wrap;html=1;aspect=fixed;" vertex="1" parent="1">
          <mxGeometry x="635.7730972222224" y="499.99620928358536" width="30.443790716414718" height="30.443790716414718" as="geometry" />
        </mxCell>
        <mxCell id="nwWqQQroa99H9BnDHaIJ-92" value="" style="endArrow=none;html=1;rounded=0;entryX=0.5;entryY=1;entryDx=0;entryDy=0;exitX=0.5;exitY=0;exitDx=0;exitDy=0;" edge="1" parent="1" source="nwWqQQroa99H9BnDHaIJ-91" target="nwWqQQroa99H9BnDHaIJ-80">
          <mxGeometry width="50" height="50" relative="1" as="geometry">
            <mxPoint x="644.3275833333333" y="366.06548121826427" as="sourcePoint" />
            <mxPoint x="642.4267083333333" y="297.56695210633114" as="targetPoint" />
          </mxGeometry>
        </mxCell>
        <mxCell id="nwWqQQroa99H9BnDHaIJ-101" value="&lt;b&gt;&lt;font style=&quot;font-size: 16px&quot;&gt;Lap 40&lt;/font&gt;&lt;/b&gt;" style="text;html=1;strokeColor=none;fillColor=none;align=center;verticalAlign=middle;whiteSpace=wrap;rounded=0;dashed=1;" vertex="1" parent="1">
          <mxGeometry x="7.439999999999989" y="4.250000000000011" width="60" height="30" as="geometry" />
        </mxCell>
      </root>
    </mxGraphModel>
  </diagram>
</mxfile>
